Coordinates
version=1
nRows=65
nColumns=12
inDegrees=yes

Units are S.I. units (second, meters, Newtons, ...)
Angles are in degrees

endheader
time	SC_y	SC_z	SC_x	AC_y	AC_z	AC_x	GH_y	GH_z	GH_yy	EL_x	PS_y
       0.0              -36.25          25.34          69.67          63.33          -3.79         -8.156          58.85          51.98          54.67          96.46          25.96
    0.0377              -36.25          25.34          69.66          63.33          -3.79         -8.152          58.83          51.97          54.68          96.47          25.97
    0.0754              -36.25          25.34          69.66          63.33         -3.789         -8.148          58.81          51.96           54.7          96.47          25.98
    0.1131              -36.26          25.34          69.65          63.33         -3.789         -8.143          58.79          51.95          54.72          96.48          25.99
    0.1508              -36.26          25.34          69.65          63.33         -3.789         -8.139          58.77          51.94          54.74          96.49          26.01
    0.1885              -36.26          25.34          69.64          63.33         -3.789         -8.134          58.75          51.93          54.76          96.49          26.02
    0.2262              -36.26          25.34          69.64          63.33         -3.789         -8.129          58.73          51.91          54.78           96.5          26.03
    0.2639              -36.27          25.34          69.63          63.33         -3.789         -8.123           58.7           51.9          54.81           96.5          26.05
    0.3016              -36.27          25.34          69.62          63.34         -3.789         -8.117          58.67          51.88          54.83          96.51          26.06
    0.3393              -36.27          25.34          69.61          63.34         -3.789         -8.111          58.64          51.87          54.86          96.52          26.08
     0.377              -36.27          25.34          69.61          63.34         -3.789         -8.104          58.61          51.85          54.89          96.53           26.1
    0.4147              -36.28          25.34           69.6          63.34         -3.789         -8.097          58.58          51.83          54.92          96.54          26.12
    0.4524              -36.28          25.34          69.59          63.34         -3.789         -8.089          58.54          51.81          54.96          96.55          26.14
    0.4901              -36.29          25.34          69.58          63.34         -3.789          -8.08           58.5          51.79           55.0          96.56          26.16
    0.5278              -36.29          25.34          69.56          63.34         -3.788         -8.071          58.46          51.76          55.04          96.57          26.19
    0.5655              -36.29          25.34          69.55          63.35         -3.788         -8.061          58.41          51.74          55.08          96.58          26.21
    0.6032               -36.3          25.34          69.54          63.35         -3.788          -8.05          58.36          51.71          55.13           96.6          26.24
    0.6409               -36.3          25.34          69.52          63.35         -3.788         -8.038          58.31          51.68          55.18          96.61          26.27
    0.6786              -36.31          25.34          69.51          63.35         -3.788         -8.025          58.24          51.65          55.24          96.63          26.31
    0.7163              -36.32          25.34          69.49          63.36         -3.788         -8.011          58.18          51.61           55.3          96.65          26.35
     0.754              -36.32          25.34          69.47          63.36         -3.787         -7.995          58.11          51.57          55.37          96.67          26.39
    0.7917              -36.33          25.33          69.45          63.36         -3.787         -7.978          58.03          51.53          55.44          96.69          26.43
    0.8293              -36.34          25.33          69.43          63.37         -3.787         -7.959          57.94          51.48          55.52          96.71          26.48
     0.867              -36.35          25.33           69.4          63.37         -3.787         -7.938          57.84          51.42          55.62          96.74          26.54
    0.9047              -36.36          25.33          69.37          63.38         -3.786         -7.914          57.73          51.36          55.72          96.77           26.6
    0.9424              -36.37          25.33          69.34          63.38         -3.786         -7.888          57.61           51.3          55.83           96.8          26.67
    0.9801              -36.39          25.33           69.3          63.39         -3.786         -7.859          57.47          51.22          55.96          96.84          26.75
     1.018               -36.4          25.33          69.26          63.39         -3.785         -7.826          57.32          51.14           56.1          96.88          26.83
     1.056              -36.42          25.33          69.22           63.4         -3.785         -7.789          57.15          51.04          56.27          96.92          26.93
     1.093              -36.44          25.32          69.16          63.41         -3.784         -7.746          56.95          50.93          56.45          96.98          27.04
     1.131              -36.46          25.32           69.1          63.42         -3.783         -7.698          56.73          50.81          56.66          97.04          27.17
     1.169              -36.48          25.32          69.04          63.43         -3.783         -7.643          56.47          50.67           56.9          97.11          27.32
     1.206              -36.51          25.32          68.96          63.44         -3.782         -7.579          56.17           50.5          57.18          97.19          27.49
     1.244              -36.55          25.31          68.87          63.46         -3.781         -7.505          55.83          50.31          57.51          97.28          27.68
     1.282              -36.59          25.31          68.76          63.48          -3.78         -7.418          55.42          50.09          57.88          97.39          27.91
     1.319              -36.63           25.3          68.63           63.5         -3.778         -7.315          54.95          49.82          58.33          97.52          28.18
     1.357              -36.69           25.3          68.48          63.52         -3.777         -7.193          54.38          49.51          58.86          97.67          28.51
     1.395              -36.75          25.29           68.3          63.55         -3.775         -7.048           53.7          49.14           59.5          97.86          28.89
     1.433              -36.83          25.28          68.08          63.59         -3.772         -6.871          52.88          48.68          60.27          98.08          29.36
      1.47              -36.93          25.27          67.82          63.63         -3.769         -6.655          51.88          48.13          61.21          98.35          29.93
     1.508              -37.05          25.26          67.49          63.68         -3.766         -6.389          50.65          47.45          62.37          98.68          30.63
     1.546               -37.2          25.24          67.08          63.75         -3.761         -6.057           49.1          46.59          63.82           99.1          31.51
     1.583              -37.39          25.22          66.57          63.84         -3.756         -5.639          47.16          45.52          65.64          99.62          32.62
     1.621              -37.63           25.2          65.91          63.94         -3.748         -5.107          44.69          44.16          67.96          100.3          34.02
     1.659              -37.94          25.16          65.07          64.08         -3.739         -4.427          41.53          42.41          70.93          101.1          35.82
     1.696              -38.33          25.12           64.0          64.26         -3.728         -3.553          37.48          40.17          74.74          102.2          38.13
     1.734              -38.84          25.07          62.62          64.48         -3.713         -2.438           32.3           37.3           79.6          103.6          41.08
     1.772              -39.47           25.0          60.89          64.76         -3.694         -1.036          25.78           33.7          85.72          105.4          44.79
     1.809              -40.25          24.91          58.78          65.11         -3.671         0.6736          17.84          29.32          93.17          107.5          49.31
     1.847              -41.14          24.82          56.34          65.51         -3.644          2.655          8.641          24.23          101.8          110.0          54.54
     1.885              -42.12          24.71           53.7          65.94         -3.615            4.8         -1.323          18.72          111.2          112.7          60.21
     1.923              -43.09          24.61          51.05          66.37         -3.586          6.945         -11.29          13.22          120.5          115.4          65.89
      1.96              -43.98          24.51          48.61          66.77         -3.559          8.926         -20.49           8.13          129.2          117.9          71.12
     1.998              -44.76          24.43          46.51          67.12         -3.536          10.64         -28.43          3.742          136.6          120.1          75.64
     2.036              -45.39          24.36          44.78           67.4         -3.517          12.04         -34.94         0.1416          142.7          121.8          79.35
     2.073               -45.9          24.31           43.4          67.62         -3.502          13.15         -40.12         -2.722          147.6          123.2           82.3
     2.111              -46.29          24.27          42.33           67.8         -3.491          14.03         -44.18         -4.964          151.4          124.3          84.61
     2.149               -46.6          24.23          41.49          67.94         -3.482          14.71         -47.34         -6.711          154.4          125.2          86.41
     2.186              -46.84          24.21          40.83          68.05         -3.474          15.24         -49.81         -8.075          156.7          125.8          87.81
     2.224              -47.03          24.19          40.32          68.13         -3.469          15.66         -51.75         -9.149          158.5          126.4          88.92
     2.262              -47.18          24.17          39.91           68.2         -3.464          15.99         -53.29          -10.0          160.0          126.8          89.79
       2.3               -47.3          24.16          39.58          68.25         -3.461          16.25         -54.53         -10.68          161.1          127.1           90.5
     2.337               -47.4          24.15          39.31          68.29         -3.458          16.47         -55.53         -11.24          162.1          127.4          91.07
     2.375              -47.48          24.14          39.09          68.33         -3.455          16.65         -56.35         -11.69          162.8          127.6          91.54
     2.413              -47.54          24.13          38.91          68.36         -3.453          16.79         -57.03         -12.07          163.5          127.8          91.92
